<svg width="927" height="900" fill="none" xmlns="http://www.w3.org/2000/svg"><g opacity=".4" filter="url(#filter0_d)" fill-rule="evenodd" clip-rule="evenodd"><path d="M98.236-106.379c64.799 94.13 180.332 297.052 196.789 466.252 8.693 89.361 15.937 151.047 21.462 191.858-30.768 6.871-65.473-5.803-99.928-33.51l63.215-70.983-92.249 44.019C145.932 447.396 106.48 382.926 76.838 306.12l96.61-22.217-115.663-33.478C39.349 188.919 29.97 129.356 29.076 76.839l135.469 63.831L30.117 36.99c5.197-71.49 28.52-124.736 68.12-143.37zm9.611-3.736c11.67 9.808 27.647 27.154 47.397 56.264 42.393 62.484 94.093 195.406 131.11 311.459l77.174-95.796C343.566 103.381 317.83 51.065 289.35 8.132l-43.157 56.834 16.62-93.156c-51.4-63.602-108.209-96.469-154.966-81.925zm178.809 368.663a2395.747 2395.747 0 0 1 8.369 26.808c22.746 74.362 40.009 179.642 49.792 253.427 31.121-22.774 49.845-70.179 54.967-131.541l-55.706.632 56.794-18.396c2.222-55.911-6.055-121.733-25.637-190.32l-88.579 59.39zm-146.701-79.702c11.596 11.911 15.906 26.516 9.627 32.623-6.278 6.106-20.767 1.402-32.363-10.51-11.595-11.91-15.905-26.515-9.627-32.623 6.279-6.105 20.768-1.4 32.363 10.51zm49.581 41.306c2.244-1.18 2.247-5.589.006-9.845-2.241-4.257-5.877-6.752-8.121-5.572-2.244 1.181-2.247 5.589-.006 9.845 2.241 4.259 5.877 6.752 8.121 5.572z" fill="url(#paint0_linear)"/><path d="M570.346-169.426c-28.702 68.996-78.228 200.187-86.244 317.883-5.795 85.074 4.246 144.457 11.578 177.962 20.497-5.008 40.717-14.899 59.818-28.919l-62.419-41.246 79.764 27.104c34.475-31.03 64.07-75.842 83.174-129.413l-84.056-15.686 93.107-13.279c.421-1.561.834-3.127 1.238-4.701 11.655-45.401 14.452-90.05 9.659-130.338l-45.322 5.74-51.395 6.51 91.239-43.699c-14.8-63.539-50.205-111.937-100.141-127.918zm-3.675-1.11c-7.093 13.737-16.056 33.056-24.134 53.026-19.139 47.312-46.294 125.26-62.591 213.175-10.824 58.392-17.537 164.543-21.384 225.375l-.001.028-.564 8.889a117.085 117.085 0 0 1-22.045-3.457c-47.981-12.306-83.429-53.753-101.336-110.116l73.316 4.78-77.558-19.694c-11.842-46.937-12.248-102.587 1.327-159.724l68.26 47.515-42.68-121.06c16.934-36.017 38.768-66.852 63.354-90.583l41.4 36.47-11.847-60.647c36.085-24.565 75.769-34.459 113.56-24.766.98.251 1.954.514 2.923.789zM469.7-23.086c2.309 16.992-6.169 32.172-18.939 33.907-12.769 1.734-24.993-10.634-27.303-27.626-2.309-16.992 6.169-32.172 18.939-33.906 12.768-1.735 24.993 10.634 27.303 27.625zm63.726 151.023c3.743.63 7.567-3.536 8.538-9.305.972-5.771-1.274-10.959-5.018-11.588-3.743-.63-7.566 3.537-8.538 9.306-.972 5.769 1.275 10.957 5.018 11.587z" fill="url(#paint1_linear)"/><path d="M519.911 662.161C569.36 634.29 620.646 591.722 667.11 537.55l-124.175-59.778 148.795 29.367c37.93-49.65 66.726-101.25 85.472-150.179l-87.678-14.994 102.869-32.206c20.161-78.127 11.333-144.52-30.761-177.52-42.34-33.193-109.487-25.663-181.058 13.11l-5.828 14.384-52.101 128.622 14.011-115.642c-16.223 11.419-32.461 24.306-48.486 38.554l-65.493 132.849 21.917 50.859-32.153-30.094-20.325 41.229 9.987-50.907-21.725-20.334c-43.044 63.481-71.211 128.533-82.666 185.852l73.262 46.385-77.544-18.827c-6.203 57.15 6.281 104.13 39.569 130.226 6.769 5.307 14.171 9.571 22.125 12.836l2.048-6.398c19.262-60.146 43.098-134.577 80.742-200.099C499.099 378.349 586.292 298 651.469 248.875c52.144-39.302 114.681-77.024 121.541-74.685-19.638 13.956-38.606 26.511-57.071 38.732-62.691 41.49-119.575 79.138-177.072 154.714-66.972 88.034-102.651 225.122-122.36 330.928 26.602-2.832 55.762-12.114 85.918-27.121l-47.031-60.19 64.517 50.908zM415.322 287.825l-5.287 26.951-5.647-13.108a694.816 694.816 0 0 1 10.934-13.843zm182.644 118.414c5.19 5.994 15.975 5.163 24.09-1.855 8.115-7.019 10.485-17.569 5.295-23.565-5.191-5.995-15.976-5.165-24.091 1.855-8.115 7.019-10.485 17.569-5.294 23.565z" fill="url(#paint2_linear)"/><path d="M307.095 777.312c-56.146-170.24-256.81-316.872-362.32-386.495-34.076 45.035-47.179 107.879-39.77 176.975L28.271 593.73l-66.298 16.107L157.115 629.9l-233.234 23.59c15.722 47.65 40.284 95.996 73.553 141.723 51.406 70.654 115.171 123.47 179.805 154.21l91.762-67.041-71.581 75.91c44.905 18.118 89.65 25.39 130.397 20.396 6.423-54.073 5.124-123.008-20.722-201.376zM56.678 446.239c-37.912-26.273-79.91-49.696-106.908-61.714 8.793-10.561 18.834-20.029 30.129-28.24 46.88-34.077 107.737-40.925 171.32-24.688l83.57 222.461-7.433-192.56c46.273 24.501 91.642 60.218 131.85 105.584l-20.889 254.147 69.158-190.992c49.343 75.206 75.832 155.889 78.907 228.003l-101.877 62.742 101.68-30.945c-3.741 65.448-28.483 121.357-74.702 155.857-27.511-84.029-65.408-190.644-104.149-250.169C234.13 583.25 128.945 496.323 56.678 446.239zm146.765 257.275c4.939-6.106 4.327-14.787-1.367-19.389-5.694-4.603-14.314-3.384-19.253 2.722-4.94 6.105-4.327 14.785 1.367 19.388 5.694 4.603 14.314 3.384 19.253-2.721z" fill="url(#paint3_linear)"/><path d="M671.849 605.883c-48.111 70.847-136.525 214.554-133.195 336.225 1.534 56.009 15.728 99.802 31.323 132.252 25.506-7.26 50.746-23.28 73.721-46.17l-59.39-29.573 69.559 18.823c32.06-35.892 58.803-85.479 74.264-143.155 10.007-37.328 14.226-74.082 13.298-108.141L596.52 810.857l112.596-62.501-43.233 6.783 68.244-47.845c-10.57-45.452-32.073-81.725-62.278-101.411zm-4.361-2.692c-13.57 14.475-33.653 39.971-50.666 66.219-32.435 50.037-76.592 131.712-96.034 221.323-10.288 47.426-9.842 124.317-8.076 184.327-35.196-9.94-62.169-38.87-78.628-79.179l67.663-6.466-74.687-13.529c-13.823-46.249-15.473-103.883-2.237-163.902l82.936 102.744-67.724-154.892c14.242-38.871 33.675-72.98 56.085-100.247l37.374 123.298 1.763-161.599c34.579-26.482 72.541-37.71 108.039-28.203 8.553 2.291 16.628 5.696 24.192 10.106z" fill="url(#paint4_linear)"/></g><defs><filter id="filter0_d" x="-221" y="-289.001" width="1147.74" height="1498.06" filterUnits="userSpaceOnUse" color-interpolation-filters="sRGB"><feFlood flood-opacity="0" result="BackgroundImageFix"/><feColorMatrix in="SourceAlpha" values="0 0 0 0 0 0 0 0 0 0 0 0 0 0 0 0 0 0 127 0"/><feOffset dy="10"/><feGaussianBlur stdDeviation="62"/><feColorMatrix values="0 0 0 0 0 0 0 0 0 0.154167 0 0 0 0 0.0658832 0 0 0 0.7 0"/><feBlend in2="BackgroundImageFix" result="effect1_dropShadow"/><feBlend in="SourceGraphic" in2="effect1_dropShadow" result="shape"/></filter><linearGradient id="paint0_linear" x1="289.221" y1="-108.86" x2="81.749" y2="534.847" gradientUnits="userSpaceOnUse"><stop stop-color="#1F9378"/><stop offset="1" stop-color="#231C36" stop-opacity="0"/></linearGradient><linearGradient id="paint1_linear" x1="570.845" y1="-171.471" x2="442.264" y2="333.675" gradientUnits="userSpaceOnUse"><stop stop-color="#1F9378"/><stop offset="1" stop-color="#231C36" stop-opacity="0"/></linearGradient><linearGradient id="paint2_linear" x1="648.991" y1="115.362" x2="524.969" y2="715.317" gradientUnits="userSpaceOnUse"><stop stop-color="#1F9378"/><stop offset="1" stop-color="#231C36" stop-opacity="0"/></linearGradient><linearGradient id="paint3_linear" x1="310.805" y1="327.797" x2="174.668" y2="1000.08" gradientUnits="userSpaceOnUse"><stop stop-color="#1F9378"/><stop offset="1" stop-color="#231C36" stop-opacity="0"/></linearGradient><linearGradient id="paint4_linear" x1="643.497" y1="593.139" x2="514.311" y2="1075.49" gradientUnits="userSpaceOnUse"><stop stop-color="#1F9378"/><stop offset="1" stop-color="#231C36" stop-opacity="0"/></linearGradient></defs></svg>