<?xml version="1.0" encoding="utf-8"?><svg xmlns="http://www.w3.org/2000/svg" xmlns:xlink="http://www.w3.org/1999/xlink"><symbol viewBox="0 0 16 9" id="arrow-down" xmlns="http://www.w3.org/2000/svg"><path d="M7.293 8.707a1 1 0 0 0 1.414 0l6.364-6.364A1 1 0 0 0 13.657.93L8 6.586 2.343.929A1 1 0 0 0 .93 2.343l6.364 6.364zM7 7v1h2V7H7z"/></symbol><symbol viewBox="0 0 16 17" id="check" xmlns="http://www.w3.org/2000/svg"><path d="M2.482 10.164l4.998 4 7.001-8"/></symbol><symbol viewBox="0 0 32 32" id="hide-password" xmlns="http://www.w3.org/2000/svg"><path d="M29.85 17.22l.705.711-.704-.71zm-27.7-2.44l.703.71-.704-.71zm27.7-.002l.704-.71-.704.71zM19.03 9.372a1 1 0 0 0 .47-1.944l-.47 1.944zM5.806 21.512a1 1 0 0 0 1.114-1.66l-1.114 1.66zm-3.656-4.29l-.704.71.704-.71zm26.997-.712c-1.095 1.085-2.932 2.72-5.237 4.079C21.601 21.95 18.88 23 16 23v2c3.36 0 6.434-1.22 8.926-2.688 2.495-1.471 4.463-3.226 5.629-4.38l-1.408-1.421zM2.853 15.49c1.095-1.085 2.932-2.72 5.237-4.079C10.399 10.05 13.12 9 16 9V7c-3.36 0-6.434 1.22-8.926 2.688-2.495 1.471-4.463 3.226-5.629 4.38l1.408 1.421zm19.143-5.08c3.192 1.456 5.76 3.701 7.15 5.079l1.408-1.42c-1.47-1.457-4.232-3.884-7.728-5.479l-.83 1.82zM16 23c-2.148 0-4.208-.584-6.08-1.449l-.84 1.816C11.141 24.319 13.49 25 16 25v-2zm0-14c1.034 0 2.048.135 3.031.372l.47-1.944A14.914 14.914 0 0 0 16 7v2zM6.92 19.852a28.246 28.246 0 0 1-4.066-3.34l-1.408 1.42c.962.953 2.467 2.31 4.36 3.58l1.114-1.66zm-5.475-5.783a2.7 2.7 0 0 0 .001 3.863l1.408-1.42a.7.7 0 0 1 0-1.023l-1.409-1.42zm29.11 3.862a2.7 2.7 0 0 0-.001-3.863l-1.408 1.42a.7.7 0 0 1 0 1.023l1.409 1.42zm-10.95-5.396a1 1 0 0 0-1.442 1.386l1.442-1.386zm-8.577 3.997a1 1 0 1 0 1.989-.21l-1.989.21zm5.225-3.521a1 1 0 0 0 .166-1.994l-.166 1.994zM19 16a3 3 0 0 1-3 3v2a5 5 0 0 0 5-5h-2zm-6 0a3 3 0 0 1 3-3v-2a5 5 0 0 0-5 5h2zm3 3a2.99 2.99 0 0 1-2.216-.978l-1.477 1.349A4.99 4.99 0 0 0 16 21v-2zm2.163-5.079c.52.54.837 1.272.837 2.079h2a4.987 4.987 0 0 0-1.395-3.465l-1.442 1.386zm-5.146 2.4A3.065 3.065 0 0 1 13 16h-2c0 .18.01.357.028.532l1.989-.21zM16 13c.085 0 .17.004.253.01l.166-1.993A5.051 5.051 0 0 0 16 11v2z"/><rect x="26.606" y="4.686" width="1" height="31" rx=".5" transform="rotate(45 26.606 4.686)"/></symbol><symbol viewBox="0 0 20 20" id="search" xmlns="http://www.w3.org/2000/svg"><path fill-rule="evenodd" clip-rule="evenodd" d="M11.314 5.372a4 4 0 1 1-5.657 5.657 4 4 0 0 1 5.657-5.657zm2.062 6.305a6.002 6.002 0 0 0-9.133-7.72 6 6 0 0 0 7.72 9.134l4.3 4.301a1 1 0 0 0 1.415-1.414l-4.302-4.301z" fill-opacity=".6"/></symbol><symbol viewBox="0 0 32 32" id="show-password" xmlns="http://www.w3.org/2000/svg"><path d="M29.85 14.78a1.7 1.7 0 0 1 0 2.44C27.59 19.46 22.24 24 16 24c-6.24 0-11.59-4.54-13.85-6.78a1.7 1.7 0 0 1 0-2.44C4.41 12.54 9.76 8 16 8c6.24 0 11.59 4.54 13.85 6.78z"/><circle cx="16" cy="16" r="4"/></symbol><symbol viewBox="0 0 236 333" id="treedset-logo" xmlns="http://www.w3.org/2000/svg"><g clip-path="url(#fclip0)"><path d="M12.515 332.647c-.938 0-1.698-.76-1.698-1.697v-30.672H1.051c-.937 0-1.697-.76-1.697-1.697v-4.372c0-.936.76-1.697 1.697-1.697h27.682c.938 0 1.698.761 1.698 1.697v4.372c0 .937-.76 1.697-1.698 1.697h-9.766v30.672c0 .937-.76 1.697-1.698 1.697h-4.754zm27.352-1.695c0 .937-.76 1.697-1.698 1.697h-4.265c-.938 0-1.698-.76-1.698-1.697v-26.204c0-.937.76-1.697 1.698-1.697h3.939c.938 0 1.698.76 1.698 1.697v2.267c1.775-3.185 4.491-4.779 8.15-4.779.778 0 1.557.092 2.336.277.749.178 1.202.908 1.134 1.675l-.352 3.947c-.095 1.075-1.155 1.772-2.221 1.608a9.924 9.924 0 0 0-1.495-.121c-2.246 0-4.02.76-5.325 2.281-1.267 1.485-1.901 3.712-1.901 6.68v12.369zm42.939-13.782c0 .552-.033 1.182-.1 1.894-.08.846-.806 1.474-1.655 1.474H60.313c1.087 4.2 3.966 6.3 8.639 6.3 2.835 0 5.499-.676 7.99-2.029.872-.473 1.99-.219 2.48.645l1.386 2.449c.426.754.22 1.715-.514 2.171-3.459 2.15-7.349 3.226-11.668 3.226-5.18 0-9.164-1.502-11.953-4.507-2.753-2.969-4.13-6.626-4.13-10.971 0-4.526 1.431-8.236 4.293-11.133 2.861-2.933 6.574-4.399 11.138-4.399 4.31 0 7.86 1.339 10.649 4.018 2.789 2.68 4.183 6.3 4.183 10.862zm-14.832-8.526c-1.92 0-3.568.562-4.944 1.683-1.34 1.087-2.246 2.589-2.717 4.508h15.05c-.362-1.919-1.195-3.421-2.5-4.508-1.303-1.121-2.933-1.683-4.89-1.683zm48.843 8.526c0 .552-.033 1.182-.1 1.894-.08.846-.806 1.474-1.655 1.474H94.324c1.087 4.2 3.966 6.3 8.639 6.3 2.835 0 5.498-.676 7.989-2.029.873-.473 1.992-.219 2.48.645l1.387 2.449c.426.754.221 1.715-.514 2.171-3.459 2.15-7.349 3.226-11.668 3.226-5.18 0-9.164-1.502-11.953-4.507-2.753-2.969-4.13-6.626-4.13-10.971 0-4.526 1.431-8.236 4.293-11.133 2.861-2.933 6.574-4.399 11.138-4.399 4.31 0 7.86 1.339 10.649 4.018 2.789 2.68 4.183 6.3 4.183 10.862zm-14.832-8.526c-1.92 0-3.568.562-4.944 1.683-1.34 1.087-2.246 2.589-2.717 4.508h15.05c-.362-1.919-1.196-3.421-2.5-4.508-1.303-1.121-2.933-1.683-4.889-1.683zm42.214-2.174v-13.401c0-.937.76-1.697 1.698-1.697h4.265c.938 0 1.698.76 1.698 1.697v37.881c0 .937-.76 1.697-1.698 1.697h-4.102c-.938 0-1.698-.76-1.698-1.697v-1.942c-2.391 2.898-5.451 4.345-9.182 4.345-4.238 0-7.733-1.466-10.486-4.399-2.789-3.006-4.183-6.716-4.183-11.133 0-4.381 1.394-8.074 4.183-11.08 2.825-2.968 6.321-4.453 10.486-4.453 3.55 0 6.556 1.393 9.019 4.182zm.38 11.351c0-2.39-.76-4.399-2.282-6.029-1.521-1.665-3.495-2.498-5.922-2.498-2.427 0-4.419.833-5.976 2.498-1.521 1.63-2.282 3.639-2.282 6.029 0 2.425.761 4.472 2.282 6.137 1.557 1.629 3.549 2.444 5.976 2.444s4.401-.815 5.922-2.444c1.522-1.665 2.282-3.712 2.282-6.137zm24.111 15.587c-4.646 0-8.419-1.551-11.321-4.652-.552-.589-.53-1.493-.01-2.109l1.872-2.222c.682-.81 1.927-.794 2.726-.1.71.616 1.487 1.145 2.332 1.588 1.485.725 2.97 1.087 4.455 1.087 1.159 0 2.118-.272 2.879-.815.798-.543 1.195-1.231 1.195-2.064 0-1.05-.706-1.901-2.119-2.552-.434-.182-1.611-.633-3.53-1.358-1.703-.616-2.971-1.141-3.804-1.575-3.404-1.629-5.107-4.182-5.107-7.658 0-2.571 1.015-4.706 3.043-6.408 1.992-1.665 4.672-2.499 8.041-2.499 3.672 0 6.775 1.078 9.314 3.235.64.545.684 1.494.173 2.159l-1.766 2.293c-.613.798-1.776.876-2.601.3-1.661-1.16-3.44-1.741-5.337-1.741-.978 0-1.793.253-2.445.76-.616.471-.924 1.051-.924 1.738 0 1.231.869 2.137 2.608 2.716 3.875 1.447 6.247 2.408 7.117 2.878 3.332 1.738 4.998 4.236 4.998 7.495 0 2.788-1.087 5.069-3.26 6.843-2.1 1.774-4.944 2.661-8.529 2.661zm45.701-16.238c0 .552-.034 1.182-.1 1.894-.08.846-.806 1.474-1.655 1.474h-20.738c1.087 4.2 3.966 6.3 8.639 6.3 2.835 0 5.497-.676 7.99-2.029.871-.473 1.99-.219 2.479.645l1.387 2.449c.426.754.221 1.715-.515 2.171-3.458 2.15-7.348 3.226-11.667 3.226-5.18 0-9.163-1.502-11.953-4.507-2.752-2.969-4.129-6.626-4.129-10.971 0-4.526 1.431-8.236 4.292-11.133 2.861-2.933 6.574-4.399 11.138-4.399 4.311 0 7.859 1.339 10.649 4.018 2.789 2.68 4.183 6.3 4.183 10.862zm-14.832-8.526c-1.92 0-3.567.562-4.944 1.683-1.34 1.087-2.246 2.589-2.717 4.508h15.05c-.362-1.919-1.195-3.421-2.499-4.508-1.304-1.121-2.934-1.683-4.89-1.683zm37.011 17.103c.971-.383 2.123.015 2.493.991l1.097 2.903c.281.741.015 1.588-.685 1.96-2.204 1.167-4.73 1.751-7.582 1.751-3.404 0-5.977-.977-7.715-2.932-1.739-1.991-2.608-4.907-2.608-8.744v-12.22h-3.138c-.937 0-1.698-.76-1.698-1.697v-3.014c0-.937.761-1.698 1.698-1.698h3.192v-8.784c0-.937.761-1.697 1.698-1.697h4.211c.937 0 1.698.76 1.698 1.697v8.784h8.081c.937 0 1.698.761 1.698 1.698v3.014c0 .937-.761 1.697-1.698 1.697h-8.081v11.731c0 3.476 1.393 5.214 4.183 5.214.998 0 2.049-.218 3.156-.654z"/><path fill-rule="evenodd" clip-rule="evenodd" d="M138.15 5.463a40.806 40.806 0 0 0-40.792 0L20.394 49.88A40.752 40.752 0 0 0 6.257 63.489l59.429 34.984c5.867-14.198 12.667-28.484 19.359-41.602 13.692-26.842 50.086-26.842 63.779 0 6.804 13.34 13.722 27.887 19.656 42.321l60.699-35.816a40.755 40.755 0 0 0-14.065-13.495L138.15 5.463z"/><path d="M0 85.195v88.835a40.775 40.775 0 0 0 20.396 35.314l76.964 44.418a40.777 40.777 0 0 0 11.418 4.464v-41.539c-18.06-2.5-59.828-12.8-59.828-54.617 0-17.257 7.113-40.306 16.738-63.596L6.259 63.49A40.744 40.744 0 0 0 0 85.195z"/><path d="M0 85.195v88.835a40.775 40.775 0 0 0 20.396 35.314l76.964 44.418a40.777 40.777 0 0 0 11.418 4.464v-41.539c-18.06-2.5-59.828-12.8-59.828-54.617 0-17.257 7.113-40.306 16.738-63.596L6.259 63.49A40.744 40.744 0 0 0 0 85.195zM184.922 162.07c0 41.818-41.769 52.118-59.828 54.618v41.562c4.528-.828 8.948-2.116 13.057-4.487l76.963-44.419a40.772 40.772 0 0 0 20.397-35.313V85.196c0-7.86-2.264-15.399-6.332-21.819l-60.698 35.817c9.473 23.044 16.441 45.797 16.441 62.876z"/><path d="M184.922 162.07c0 41.818-41.769 52.118-59.828 54.618v41.562c4.528-.828 8.948-2.116 13.057-4.487l76.963-44.419a40.772 40.772 0 0 0 20.397-35.313V85.196c0-7.86-2.264-15.399-6.332-21.819l-60.698 35.817c9.473 23.044 16.441 45.797 16.441 62.876z"/><path d="M48.95 161.997c0 41.816 41.77 52.977 59.83 55.476v-33.259l-31.065-16.72a8.154 8.154 0 0 1-3.316-11.047 8.16 8.16 0 0 1 11.051-3.314l23.33 12.557v-32.956l-22.687-11.339a8.153 8.153 0 0 1-3.65-10.941 8.16 8.16 0 0 1 10.946-3.647l15.391 7.692V73.325a8.156 8.156 0 0 1 8.158-8.155 8.157 8.157 0 0 1 8.159 8.155v41.172l15.384-7.69a8.16 8.16 0 0 1 10.946 3.647 8.153 8.153 0 0 1-3.648 10.941l-22.682 11.337v32.956l23.323-12.555a8.162 8.162 0 0 1 11.052 3.314 8.153 8.153 0 0 1-3.316 11.047l-31.059 16.718v33.261c18.059-2.499 59.825-13.66 59.825-55.476 0-17.079-6.968-39.832-16.441-62.877-5.934-14.433-12.851-28.98-19.656-42.32-13.692-26.843-50.087-26.842-63.78 0-6.69 13.118-13.491 27.404-19.358 41.601-9.625 23.29-16.738 46.339-16.738 63.596z"/><path fill-rule="evenodd" clip-rule="evenodd" d="M108.783 73.397a8.157 8.157 0 0 1 8.158-8.156 8.157 8.157 0 0 1 8.159 8.156v41.171l15.384-7.69a8.16 8.16 0 0 1 10.946 3.647 8.154 8.154 0 0 1-3.648 10.942L125.1 132.804v32.956l23.323-12.555a8.161 8.161 0 0 1 11.052 3.314 8.154 8.154 0 0 1-3.316 11.047L125.1 184.284v32.392h-.005v41.572h-16.317v-43.495h.005v-30.468l-31.065-16.719a8.154 8.154 0 0 1-3.316-11.047 8.16 8.16 0 0 1 11.052-3.314l23.329 12.556v-32.955l-22.687-11.339a8.153 8.153 0 0 1-3.649-10.941 8.16 8.16 0 0 1 10.945-3.648l15.391 7.692V73.397z"/></g><defs><radialGradient id="fpaint0_radial" cx="0" cy="0" r="1" gradientUnits="userSpaceOnUse" gradientTransform="rotate(-35.965 342.585 187.82) scale(202.625 115.127)"><stop stop-color="#fff" stop-opacity=".41"/><stop offset="1" stop-color="#fff" stop-opacity="0"/></radialGradient><radialGradient id="fpaint1_radial" cx="0" cy="0" r="1" gradientUnits="userSpaceOnUse" gradientTransform="matrix(-156.20067 -123.04587 69.6856 -88.46244 271.652 233.364)"><stop stop-color="#fff" stop-opacity=".4"/><stop offset="1" stop-color="#fff" stop-opacity="0"/></radialGradient><clipPath id="fclip0"><path d="M0 0h236v332.648H0z"/></clipPath></defs></symbol></svg>